<mxfile host="app.diagrams.net" modified="2022-03-15T07:12:46.606Z" agent="5.0 (Windows NT 10.0; Win64; x64) AppleWebKit/537.36 (KHTML, like Gecko) Chrome/99.0.4844.51 Safari/537.36" etag="oZWZaWKyGo2kLcnHn23_" version="17.1.1" type="github" pages="6">
  <diagram id="RtVbiJwxfraDKLLxRP3C" name="动漫">
    <mxGraphModel dx="545" dy="417" grid="1" gridSize="10" guides="1" tooltips="1" connect="1" arrows="1" fold="1" page="1" pageScale="1" pageWidth="850" pageHeight="1100" math="0" shadow="0">
      <root>
        <mxCell id="0" />
        <mxCell id="1" parent="0" />
        <mxCell id="TsMXioSZW6GcAir_vo3O-26" style="edgeStyle=none;shape=connector;rounded=0;orthogonalLoop=1;jettySize=auto;html=1;exitX=0.5;exitY=1;exitDx=0;exitDy=0;labelBackgroundColor=default;fontFamily=Helvetica;fontSize=11;fontColor=default;endArrow=none;endFill=0;strokeColor=default;entryX=0.5;entryY=0;entryDx=0;entryDy=0;" edge="1" parent="1" source="TsMXioSZW6GcAir_vo3O-2" target="TsMXioSZW6GcAir_vo3O-1">
          <mxGeometry relative="1" as="geometry">
            <mxPoint x="320" y="320" as="targetPoint" />
          </mxGeometry>
        </mxCell>
        <mxCell id="TsMXioSZW6GcAir_vo3O-2" value="分类" style="ellipse;whiteSpace=wrap;html=1;" vertex="1" parent="1">
          <mxGeometry x="180" y="170" width="70" height="30" as="geometry" />
        </mxCell>
        <mxCell id="TsMXioSZW6GcAir_vo3O-28" style="edgeStyle=none;shape=connector;rounded=0;orthogonalLoop=1;jettySize=auto;html=1;exitX=1;exitY=0.5;exitDx=0;exitDy=0;labelBackgroundColor=default;fontFamily=Helvetica;fontSize=11;fontColor=default;endArrow=none;endFill=0;strokeColor=default;entryX=0.5;entryY=0;entryDx=0;entryDy=0;" edge="1" parent="1" source="TsMXioSZW6GcAir_vo3O-3" target="TsMXioSZW6GcAir_vo3O-1">
          <mxGeometry relative="1" as="geometry">
            <mxPoint x="330" y="310" as="targetPoint" />
          </mxGeometry>
        </mxCell>
        <mxCell id="TsMXioSZW6GcAir_vo3O-3" value="标题" style="ellipse;whiteSpace=wrap;html=1;" vertex="1" parent="1">
          <mxGeometry x="120" y="250" width="70" height="30" as="geometry" />
        </mxCell>
        <mxCell id="TsMXioSZW6GcAir_vo3O-5" value="动漫id" style="ellipse;whiteSpace=wrap;html=1;" vertex="1" parent="1">
          <mxGeometry x="120" y="290" width="70" height="30" as="geometry" />
        </mxCell>
        <mxCell id="TsMXioSZW6GcAir_vo3O-19" style="rounded=0;orthogonalLoop=1;jettySize=auto;html=1;exitX=0.5;exitY=1;exitDx=0;exitDy=0;entryX=0.5;entryY=0;entryDx=0;entryDy=0;endArrow=none;endFill=0;" edge="1" parent="1" source="TsMXioSZW6GcAir_vo3O-6" target="TsMXioSZW6GcAir_vo3O-1">
          <mxGeometry relative="1" as="geometry" />
        </mxCell>
        <mxCell id="TsMXioSZW6GcAir_vo3O-6" value="出版状态" style="ellipse;whiteSpace=wrap;html=1;" vertex="1" parent="1">
          <mxGeometry x="240" y="140" width="70" height="30" as="geometry" />
        </mxCell>
        <mxCell id="TsMXioSZW6GcAir_vo3O-27" style="edgeStyle=none;shape=connector;rounded=0;orthogonalLoop=1;jettySize=auto;html=1;exitX=0.5;exitY=1;exitDx=0;exitDy=0;entryX=0.5;entryY=0;entryDx=0;entryDy=0;labelBackgroundColor=default;fontFamily=Helvetica;fontSize=11;fontColor=default;endArrow=none;endFill=0;strokeColor=default;" edge="1" parent="1" source="TsMXioSZW6GcAir_vo3O-7" target="TsMXioSZW6GcAir_vo3O-1">
          <mxGeometry relative="1" as="geometry" />
        </mxCell>
        <mxCell id="TsMXioSZW6GcAir_vo3O-7" value="评分" style="ellipse;whiteSpace=wrap;html=1;" vertex="1" parent="1">
          <mxGeometry x="140" y="210" width="70" height="30" as="geometry" />
        </mxCell>
        <mxCell id="TsMXioSZW6GcAir_vo3O-24" style="edgeStyle=none;shape=connector;rounded=0;orthogonalLoop=1;jettySize=auto;html=1;exitX=0;exitY=0.5;exitDx=0;exitDy=0;entryX=0.5;entryY=0;entryDx=0;entryDy=0;labelBackgroundColor=default;fontFamily=Helvetica;fontSize=11;fontColor=default;endArrow=none;endFill=0;strokeColor=default;" edge="1" parent="1" source="TsMXioSZW6GcAir_vo3O-9" target="TsMXioSZW6GcAir_vo3O-1">
          <mxGeometry relative="1" as="geometry" />
        </mxCell>
        <mxCell id="TsMXioSZW6GcAir_vo3O-9" value="集数" style="ellipse;whiteSpace=wrap;html=1;" vertex="1" parent="1">
          <mxGeometry x="440" y="250" width="70" height="30" as="geometry" />
        </mxCell>
        <mxCell id="TsMXioSZW6GcAir_vo3O-22" style="edgeStyle=none;shape=connector;rounded=0;orthogonalLoop=1;jettySize=auto;html=1;exitX=0.5;exitY=1;exitDx=0;exitDy=0;labelBackgroundColor=default;fontFamily=Helvetica;fontSize=11;fontColor=default;endArrow=none;endFill=0;strokeColor=default;entryX=0.5;entryY=0;entryDx=0;entryDy=0;" edge="1" parent="1" source="TsMXioSZW6GcAir_vo3O-10" target="TsMXioSZW6GcAir_vo3O-1">
          <mxGeometry relative="1" as="geometry">
            <mxPoint x="330" y="280" as="targetPoint" />
          </mxGeometry>
        </mxCell>
        <mxCell id="TsMXioSZW6GcAir_vo3O-10" value="介绍" style="ellipse;whiteSpace=wrap;html=1;" vertex="1" parent="1">
          <mxGeometry x="410" y="210" width="70" height="30" as="geometry" />
        </mxCell>
        <mxCell id="TsMXioSZW6GcAir_vo3O-25" style="edgeStyle=none;shape=connector;rounded=0;orthogonalLoop=1;jettySize=auto;html=1;exitX=0;exitY=0.5;exitDx=0;exitDy=0;labelBackgroundColor=default;fontFamily=Helvetica;fontSize=11;fontColor=default;endArrow=none;endFill=0;strokeColor=default;entryX=0.5;entryY=0;entryDx=0;entryDy=0;" edge="1" parent="1" source="TsMXioSZW6GcAir_vo3O-11" target="TsMXioSZW6GcAir_vo3O-1">
          <mxGeometry relative="1" as="geometry">
            <mxPoint x="330" y="280" as="targetPoint" />
          </mxGeometry>
        </mxCell>
        <mxCell id="TsMXioSZW6GcAir_vo3O-11" value="日期" style="ellipse;whiteSpace=wrap;html=1;" vertex="1" parent="1">
          <mxGeometry x="450" y="290" width="70" height="30" as="geometry" />
        </mxCell>
        <mxCell id="TsMXioSZW6GcAir_vo3O-20" style="edgeStyle=none;shape=connector;rounded=0;orthogonalLoop=1;jettySize=auto;html=1;exitX=0.5;exitY=1;exitDx=0;exitDy=0;entryX=0.5;entryY=0;entryDx=0;entryDy=0;labelBackgroundColor=default;fontFamily=Helvetica;fontSize=11;fontColor=default;endArrow=none;endFill=0;strokeColor=default;" edge="1" parent="1" source="TsMXioSZW6GcAir_vo3O-12" target="TsMXioSZW6GcAir_vo3O-1">
          <mxGeometry relative="1" as="geometry" />
        </mxCell>
        <mxCell id="TsMXioSZW6GcAir_vo3O-12" value="标签" style="ellipse;whiteSpace=wrap;html=1;" vertex="1" parent="1">
          <mxGeometry x="320" y="140" width="70" height="30" as="geometry" />
        </mxCell>
        <mxCell id="TsMXioSZW6GcAir_vo3O-21" style="edgeStyle=none;shape=connector;rounded=0;orthogonalLoop=1;jettySize=auto;html=1;exitX=0.5;exitY=1;exitDx=0;exitDy=0;labelBackgroundColor=default;fontFamily=Helvetica;fontSize=11;fontColor=default;endArrow=none;endFill=0;strokeColor=default;entryX=0.5;entryY=0;entryDx=0;entryDy=0;" edge="1" parent="1" source="TsMXioSZW6GcAir_vo3O-15" target="TsMXioSZW6GcAir_vo3O-1">
          <mxGeometry relative="1" as="geometry">
            <mxPoint x="330" y="280" as="targetPoint" />
            <Array as="points" />
          </mxGeometry>
        </mxCell>
        <mxCell id="TsMXioSZW6GcAir_vo3O-15" value="图片" style="ellipse;whiteSpace=wrap;html=1;" vertex="1" parent="1">
          <mxGeometry x="370" y="170" width="70" height="30" as="geometry" />
        </mxCell>
        <mxCell id="TsMXioSZW6GcAir_vo3O-1" value="动漫" style="rounded=0;whiteSpace=wrap;html=1;" vertex="1" parent="1">
          <mxGeometry x="260" y="320" width="100" height="30" as="geometry" />
        </mxCell>
        <mxCell id="TsMXioSZW6GcAir_vo3O-31" value="" style="edgeStyle=none;shape=connector;rounded=0;orthogonalLoop=1;jettySize=auto;html=1;exitX=1;exitY=0.5;exitDx=0;exitDy=0;labelBackgroundColor=default;fontFamily=Helvetica;fontSize=11;fontColor=default;endArrow=none;endFill=0;strokeColor=default;entryX=0.5;entryY=0;entryDx=0;entryDy=0;" edge="1" parent="1" source="TsMXioSZW6GcAir_vo3O-5" target="TsMXioSZW6GcAir_vo3O-1">
          <mxGeometry relative="1" as="geometry">
            <mxPoint x="330" y="310" as="targetPoint" />
            <mxPoint x="170" y="255" as="sourcePoint" />
          </mxGeometry>
        </mxCell>
      </root>
    </mxGraphModel>
  </diagram>
  <diagram id="gP4oaR0fDQ6i805HvMjp" name="用户">
    <mxGraphModel dx="545" dy="417" grid="1" gridSize="10" guides="1" tooltips="1" connect="1" arrows="1" fold="1" page="1" pageScale="1" pageWidth="850" pageHeight="1100" math="0" shadow="0">
      <root>
        <mxCell id="Y8x0huz02O-NLJj5YL9E-0" />
        <mxCell id="Y8x0huz02O-NLJj5YL9E-1" parent="Y8x0huz02O-NLJj5YL9E-0" />
        <mxCell id="ryJ4MdPbTmHFTYvRWPgL-0" style="edgeStyle=none;shape=connector;rounded=0;orthogonalLoop=1;jettySize=auto;html=1;exitX=0.5;exitY=1;exitDx=0;exitDy=0;labelBackgroundColor=default;fontFamily=Helvetica;fontSize=11;fontColor=default;endArrow=none;endFill=0;strokeColor=default;entryX=0.5;entryY=0;entryDx=0;entryDy=0;" edge="1" parent="Y8x0huz02O-NLJj5YL9E-1" source="ryJ4MdPbTmHFTYvRWPgL-1" target="ryJ4MdPbTmHFTYvRWPgL-19">
          <mxGeometry relative="1" as="geometry">
            <mxPoint x="320" y="320" as="targetPoint" />
          </mxGeometry>
        </mxCell>
        <mxCell id="ryJ4MdPbTmHFTYvRWPgL-1" value="昵称" style="ellipse;whiteSpace=wrap;html=1;" vertex="1" parent="Y8x0huz02O-NLJj5YL9E-1">
          <mxGeometry x="170" y="170" width="70" height="30" as="geometry" />
        </mxCell>
        <mxCell id="ryJ4MdPbTmHFTYvRWPgL-2" style="edgeStyle=none;shape=connector;rounded=0;orthogonalLoop=1;jettySize=auto;html=1;exitX=1;exitY=0.5;exitDx=0;exitDy=0;labelBackgroundColor=default;fontFamily=Helvetica;fontSize=11;fontColor=default;endArrow=none;endFill=0;strokeColor=default;entryX=0.5;entryY=0;entryDx=0;entryDy=0;" edge="1" parent="Y8x0huz02O-NLJj5YL9E-1" source="ryJ4MdPbTmHFTYvRWPgL-3" target="ryJ4MdPbTmHFTYvRWPgL-19">
          <mxGeometry relative="1" as="geometry">
            <mxPoint x="330" y="310" as="targetPoint" />
          </mxGeometry>
        </mxCell>
        <mxCell id="ryJ4MdPbTmHFTYvRWPgL-3" value="用户名" style="ellipse;whiteSpace=wrap;html=1;" vertex="1" parent="Y8x0huz02O-NLJj5YL9E-1">
          <mxGeometry x="120" y="250" width="70" height="30" as="geometry" />
        </mxCell>
        <mxCell id="ryJ4MdPbTmHFTYvRWPgL-4" value="用户id" style="ellipse;whiteSpace=wrap;html=1;" vertex="1" parent="Y8x0huz02O-NLJj5YL9E-1">
          <mxGeometry x="120" y="290" width="70" height="30" as="geometry" />
        </mxCell>
        <mxCell id="ryJ4MdPbTmHFTYvRWPgL-5" style="rounded=0;orthogonalLoop=1;jettySize=auto;html=1;exitX=0.5;exitY=1;exitDx=0;exitDy=0;entryX=0.5;entryY=0;entryDx=0;entryDy=0;endArrow=none;endFill=0;" edge="1" parent="Y8x0huz02O-NLJj5YL9E-1" source="ryJ4MdPbTmHFTYvRWPgL-6" target="ryJ4MdPbTmHFTYvRWPgL-19">
          <mxGeometry relative="1" as="geometry" />
        </mxCell>
        <mxCell id="ryJ4MdPbTmHFTYvRWPgL-6" value="手机号码" style="ellipse;whiteSpace=wrap;html=1;" vertex="1" parent="Y8x0huz02O-NLJj5YL9E-1">
          <mxGeometry x="205" y="130" width="70" height="30" as="geometry" />
        </mxCell>
        <mxCell id="ryJ4MdPbTmHFTYvRWPgL-7" style="edgeStyle=none;shape=connector;rounded=0;orthogonalLoop=1;jettySize=auto;html=1;exitX=0.5;exitY=1;exitDx=0;exitDy=0;entryX=0.5;entryY=0;entryDx=0;entryDy=0;labelBackgroundColor=default;fontFamily=Helvetica;fontSize=11;fontColor=default;endArrow=none;endFill=0;strokeColor=default;" edge="1" parent="Y8x0huz02O-NLJj5YL9E-1" source="ryJ4MdPbTmHFTYvRWPgL-8" target="ryJ4MdPbTmHFTYvRWPgL-19">
          <mxGeometry relative="1" as="geometry" />
        </mxCell>
        <mxCell id="ryJ4MdPbTmHFTYvRWPgL-8" value="密码" style="ellipse;whiteSpace=wrap;html=1;" vertex="1" parent="Y8x0huz02O-NLJj5YL9E-1">
          <mxGeometry x="140" y="210" width="70" height="30" as="geometry" />
        </mxCell>
        <mxCell id="ryJ4MdPbTmHFTYvRWPgL-9" style="edgeStyle=none;shape=connector;rounded=0;orthogonalLoop=1;jettySize=auto;html=1;exitX=0;exitY=0.5;exitDx=0;exitDy=0;entryX=0.5;entryY=0;entryDx=0;entryDy=0;labelBackgroundColor=default;fontFamily=Helvetica;fontSize=11;fontColor=default;endArrow=none;endFill=0;strokeColor=default;" edge="1" parent="Y8x0huz02O-NLJj5YL9E-1" source="ryJ4MdPbTmHFTYvRWPgL-10" target="ryJ4MdPbTmHFTYvRWPgL-19">
          <mxGeometry relative="1" as="geometry" />
        </mxCell>
        <mxCell id="ryJ4MdPbTmHFTYvRWPgL-10" value="权限" style="ellipse;whiteSpace=wrap;html=1;" vertex="1" parent="Y8x0huz02O-NLJj5YL9E-1">
          <mxGeometry x="440" y="250" width="70" height="30" as="geometry" />
        </mxCell>
        <mxCell id="ryJ4MdPbTmHFTYvRWPgL-11" style="edgeStyle=none;shape=connector;rounded=0;orthogonalLoop=1;jettySize=auto;html=1;exitX=0.5;exitY=1;exitDx=0;exitDy=0;labelBackgroundColor=default;fontFamily=Helvetica;fontSize=11;fontColor=default;endArrow=none;endFill=0;strokeColor=default;entryX=0.5;entryY=0;entryDx=0;entryDy=0;" edge="1" parent="Y8x0huz02O-NLJj5YL9E-1" source="ryJ4MdPbTmHFTYvRWPgL-12" target="ryJ4MdPbTmHFTYvRWPgL-19">
          <mxGeometry relative="1" as="geometry">
            <mxPoint x="330" y="280" as="targetPoint" />
          </mxGeometry>
        </mxCell>
        <mxCell id="ryJ4MdPbTmHFTYvRWPgL-12" value="性别" style="ellipse;whiteSpace=wrap;html=1;" vertex="1" parent="Y8x0huz02O-NLJj5YL9E-1">
          <mxGeometry x="410" y="210" width="70" height="30" as="geometry" />
        </mxCell>
        <mxCell id="ryJ4MdPbTmHFTYvRWPgL-13" style="edgeStyle=none;shape=connector;rounded=0;orthogonalLoop=1;jettySize=auto;html=1;exitX=0;exitY=0.5;exitDx=0;exitDy=0;labelBackgroundColor=default;fontFamily=Helvetica;fontSize=11;fontColor=default;endArrow=none;endFill=0;strokeColor=default;entryX=0.5;entryY=0;entryDx=0;entryDy=0;" edge="1" parent="Y8x0huz02O-NLJj5YL9E-1" source="ryJ4MdPbTmHFTYvRWPgL-14" target="ryJ4MdPbTmHFTYvRWPgL-19">
          <mxGeometry relative="1" as="geometry">
            <mxPoint x="330" y="280" as="targetPoint" />
          </mxGeometry>
        </mxCell>
        <mxCell id="ryJ4MdPbTmHFTYvRWPgL-14" value="注册日期" style="ellipse;whiteSpace=wrap;html=1;" vertex="1" parent="Y8x0huz02O-NLJj5YL9E-1">
          <mxGeometry x="450" y="290" width="70" height="30" as="geometry" />
        </mxCell>
        <mxCell id="ryJ4MdPbTmHFTYvRWPgL-15" style="edgeStyle=none;shape=connector;rounded=0;orthogonalLoop=1;jettySize=auto;html=1;exitX=0.5;exitY=1;exitDx=0;exitDy=0;entryX=0.5;entryY=0;entryDx=0;entryDy=0;labelBackgroundColor=default;fontFamily=Helvetica;fontSize=11;fontColor=default;endArrow=none;endFill=0;strokeColor=default;" edge="1" parent="Y8x0huz02O-NLJj5YL9E-1" source="ryJ4MdPbTmHFTYvRWPgL-16" target="ryJ4MdPbTmHFTYvRWPgL-19">
          <mxGeometry relative="1" as="geometry" />
        </mxCell>
        <mxCell id="ryJ4MdPbTmHFTYvRWPgL-16" value="出生日期" style="ellipse;whiteSpace=wrap;html=1;" vertex="1" parent="Y8x0huz02O-NLJj5YL9E-1">
          <mxGeometry x="345" y="130" width="70" height="30" as="geometry" />
        </mxCell>
        <mxCell id="ryJ4MdPbTmHFTYvRWPgL-17" style="edgeStyle=none;shape=connector;rounded=0;orthogonalLoop=1;jettySize=auto;html=1;exitX=0.5;exitY=1;exitDx=0;exitDy=0;labelBackgroundColor=default;fontFamily=Helvetica;fontSize=11;fontColor=default;endArrow=none;endFill=0;strokeColor=default;entryX=0.5;entryY=0;entryDx=0;entryDy=0;" edge="1" parent="Y8x0huz02O-NLJj5YL9E-1" source="ryJ4MdPbTmHFTYvRWPgL-18" target="ryJ4MdPbTmHFTYvRWPgL-19">
          <mxGeometry relative="1" as="geometry">
            <mxPoint x="330" y="280" as="targetPoint" />
            <Array as="points" />
          </mxGeometry>
        </mxCell>
        <mxCell id="ryJ4MdPbTmHFTYvRWPgL-18" value="介绍" style="ellipse;whiteSpace=wrap;html=1;" vertex="1" parent="Y8x0huz02O-NLJj5YL9E-1">
          <mxGeometry x="390" y="170" width="70" height="30" as="geometry" />
        </mxCell>
        <mxCell id="ryJ4MdPbTmHFTYvRWPgL-19" value="用户" style="rounded=0;whiteSpace=wrap;html=1;" vertex="1" parent="Y8x0huz02O-NLJj5YL9E-1">
          <mxGeometry x="260" y="320" width="100" height="30" as="geometry" />
        </mxCell>
        <mxCell id="ryJ4MdPbTmHFTYvRWPgL-20" value="" style="edgeStyle=none;shape=connector;rounded=0;orthogonalLoop=1;jettySize=auto;html=1;exitX=1;exitY=0.5;exitDx=0;exitDy=0;labelBackgroundColor=default;fontFamily=Helvetica;fontSize=11;fontColor=default;endArrow=none;endFill=0;strokeColor=default;entryX=0.5;entryY=0;entryDx=0;entryDy=0;" edge="1" parent="Y8x0huz02O-NLJj5YL9E-1" source="ryJ4MdPbTmHFTYvRWPgL-4" target="ryJ4MdPbTmHFTYvRWPgL-19">
          <mxGeometry relative="1" as="geometry">
            <mxPoint x="330" y="310" as="targetPoint" />
            <mxPoint x="170" y="255" as="sourcePoint" />
          </mxGeometry>
        </mxCell>
        <mxCell id="ryJ4MdPbTmHFTYvRWPgL-22" style="edgeStyle=none;shape=connector;rounded=0;orthogonalLoop=1;jettySize=auto;html=1;exitX=0.5;exitY=1;exitDx=0;exitDy=0;entryX=0.5;entryY=0;entryDx=0;entryDy=0;labelBackgroundColor=default;fontFamily=Helvetica;fontSize=11;fontColor=default;endArrow=none;endFill=0;strokeColor=default;" edge="1" parent="Y8x0huz02O-NLJj5YL9E-1" source="ryJ4MdPbTmHFTYvRWPgL-21" target="ryJ4MdPbTmHFTYvRWPgL-19">
          <mxGeometry relative="1" as="geometry" />
        </mxCell>
        <mxCell id="ryJ4MdPbTmHFTYvRWPgL-21" value="头像" style="ellipse;whiteSpace=wrap;html=1;" vertex="1" parent="Y8x0huz02O-NLJj5YL9E-1">
          <mxGeometry x="275" y="110" width="70" height="30" as="geometry" />
        </mxCell>
      </root>
    </mxGraphModel>
  </diagram>
  <diagram id="OWzv1JHO6eDKrAHMJIfD" name="评论">
    <mxGraphModel dx="545" dy="417" grid="1" gridSize="10" guides="1" tooltips="1" connect="1" arrows="1" fold="1" page="1" pageScale="1" pageWidth="850" pageHeight="1100" math="0" shadow="0">
      <root>
        <mxCell id="SLYMrDssIBiIdeksEhnC-0" />
        <mxCell id="SLYMrDssIBiIdeksEhnC-1" parent="SLYMrDssIBiIdeksEhnC-0" />
        <mxCell id="SLYMrDssIBiIdeksEhnC-7" value="评论id" style="ellipse;whiteSpace=wrap;html=1;" vertex="1" parent="SLYMrDssIBiIdeksEhnC-1">
          <mxGeometry x="120" y="290" width="70" height="30" as="geometry" />
        </mxCell>
        <mxCell id="SLYMrDssIBiIdeksEhnC-8" style="rounded=0;orthogonalLoop=1;jettySize=auto;html=1;exitX=0.5;exitY=1;exitDx=0;exitDy=0;entryX=0.5;entryY=0;entryDx=0;entryDy=0;endArrow=none;endFill=0;" edge="1" parent="SLYMrDssIBiIdeksEhnC-1" source="SLYMrDssIBiIdeksEhnC-9" target="SLYMrDssIBiIdeksEhnC-22">
          <mxGeometry relative="1" as="geometry" />
        </mxCell>
        <mxCell id="SLYMrDssIBiIdeksEhnC-9" value="内容" style="ellipse;whiteSpace=wrap;html=1;" vertex="1" parent="SLYMrDssIBiIdeksEhnC-1">
          <mxGeometry x="160" y="250" width="70" height="30" as="geometry" />
        </mxCell>
        <mxCell id="SLYMrDssIBiIdeksEhnC-12" style="edgeStyle=none;shape=connector;rounded=0;orthogonalLoop=1;jettySize=auto;html=1;exitX=0;exitY=0.5;exitDx=0;exitDy=0;entryX=0.5;entryY=0;entryDx=0;entryDy=0;labelBackgroundColor=default;fontFamily=Helvetica;fontSize=11;fontColor=default;endArrow=none;endFill=0;strokeColor=default;" edge="1" parent="SLYMrDssIBiIdeksEhnC-1" source="SLYMrDssIBiIdeksEhnC-13" target="SLYMrDssIBiIdeksEhnC-22">
          <mxGeometry relative="1" as="geometry" />
        </mxCell>
        <mxCell id="SLYMrDssIBiIdeksEhnC-13" value="用户id" style="ellipse;whiteSpace=wrap;html=1;" vertex="1" parent="SLYMrDssIBiIdeksEhnC-1">
          <mxGeometry x="390" y="250" width="70" height="30" as="geometry" />
        </mxCell>
        <mxCell id="SLYMrDssIBiIdeksEhnC-16" style="edgeStyle=none;shape=connector;rounded=0;orthogonalLoop=1;jettySize=auto;html=1;exitX=0;exitY=0.5;exitDx=0;exitDy=0;labelBackgroundColor=default;fontFamily=Helvetica;fontSize=11;fontColor=default;endArrow=none;endFill=0;strokeColor=default;entryX=0.5;entryY=0;entryDx=0;entryDy=0;" edge="1" parent="SLYMrDssIBiIdeksEhnC-1" source="SLYMrDssIBiIdeksEhnC-17" target="SLYMrDssIBiIdeksEhnC-22">
          <mxGeometry relative="1" as="geometry">
            <mxPoint x="330" y="280" as="targetPoint" />
          </mxGeometry>
        </mxCell>
        <mxCell id="SLYMrDssIBiIdeksEhnC-17" value="审核状态" style="ellipse;whiteSpace=wrap;html=1;" vertex="1" parent="SLYMrDssIBiIdeksEhnC-1">
          <mxGeometry x="420" y="290" width="70" height="30" as="geometry" />
        </mxCell>
        <mxCell id="SLYMrDssIBiIdeksEhnC-18" style="edgeStyle=none;shape=connector;rounded=0;orthogonalLoop=1;jettySize=auto;html=1;exitX=0.5;exitY=1;exitDx=0;exitDy=0;entryX=0.5;entryY=0;entryDx=0;entryDy=0;labelBackgroundColor=default;fontFamily=Helvetica;fontSize=11;fontColor=default;endArrow=none;endFill=0;strokeColor=default;" edge="1" parent="SLYMrDssIBiIdeksEhnC-1" source="SLYMrDssIBiIdeksEhnC-19" target="SLYMrDssIBiIdeksEhnC-22">
          <mxGeometry relative="1" as="geometry" />
        </mxCell>
        <mxCell id="SLYMrDssIBiIdeksEhnC-19" value="发表时间" style="ellipse;whiteSpace=wrap;html=1;" vertex="1" parent="SLYMrDssIBiIdeksEhnC-1">
          <mxGeometry x="220" y="220" width="70" height="30" as="geometry" />
        </mxCell>
        <mxCell id="SLYMrDssIBiIdeksEhnC-20" style="edgeStyle=none;shape=connector;rounded=0;orthogonalLoop=1;jettySize=auto;html=1;exitX=0.5;exitY=1;exitDx=0;exitDy=0;labelBackgroundColor=default;fontFamily=Helvetica;fontSize=11;fontColor=default;endArrow=none;endFill=0;strokeColor=default;entryX=0.5;entryY=0;entryDx=0;entryDy=0;" edge="1" parent="SLYMrDssIBiIdeksEhnC-1" source="SLYMrDssIBiIdeksEhnC-21" target="SLYMrDssIBiIdeksEhnC-22">
          <mxGeometry relative="1" as="geometry">
            <mxPoint x="330" y="280" as="targetPoint" />
            <Array as="points" />
          </mxGeometry>
        </mxCell>
        <mxCell id="SLYMrDssIBiIdeksEhnC-21" value="动漫id" style="ellipse;whiteSpace=wrap;html=1;" vertex="1" parent="SLYMrDssIBiIdeksEhnC-1">
          <mxGeometry x="310" y="220" width="70" height="30" as="geometry" />
        </mxCell>
        <mxCell id="SLYMrDssIBiIdeksEhnC-22" value="评论" style="rounded=0;whiteSpace=wrap;html=1;" vertex="1" parent="SLYMrDssIBiIdeksEhnC-1">
          <mxGeometry x="260" y="320" width="100" height="30" as="geometry" />
        </mxCell>
        <mxCell id="SLYMrDssIBiIdeksEhnC-23" value="" style="edgeStyle=none;shape=connector;rounded=0;orthogonalLoop=1;jettySize=auto;html=1;exitX=1;exitY=0.5;exitDx=0;exitDy=0;labelBackgroundColor=default;fontFamily=Helvetica;fontSize=11;fontColor=default;endArrow=none;endFill=0;strokeColor=default;entryX=0.5;entryY=0;entryDx=0;entryDy=0;" edge="1" parent="SLYMrDssIBiIdeksEhnC-1" source="SLYMrDssIBiIdeksEhnC-7" target="SLYMrDssIBiIdeksEhnC-22">
          <mxGeometry relative="1" as="geometry">
            <mxPoint x="330" y="310" as="targetPoint" />
            <mxPoint x="170" y="255" as="sourcePoint" />
          </mxGeometry>
        </mxCell>
      </root>
    </mxGraphModel>
  </diagram>
  <diagram id="OxOuTVWoeQt1wlj5oggA" name="回复">
    <mxGraphModel dx="545" dy="417" grid="1" gridSize="10" guides="1" tooltips="1" connect="1" arrows="1" fold="1" page="1" pageScale="1" pageWidth="850" pageHeight="1100" math="0" shadow="0">
      <root>
        <mxCell id="FiTQ-bRqiKPeu-xEquxC-0" />
        <mxCell id="FiTQ-bRqiKPeu-xEquxC-1" parent="FiTQ-bRqiKPeu-xEquxC-0" />
        <mxCell id="4OTkbudmXLv63_RJwgAq-0" value="回复id" style="ellipse;whiteSpace=wrap;html=1;" vertex="1" parent="FiTQ-bRqiKPeu-xEquxC-1">
          <mxGeometry x="120" y="290" width="70" height="30" as="geometry" />
        </mxCell>
        <mxCell id="4OTkbudmXLv63_RJwgAq-1" style="rounded=0;orthogonalLoop=1;jettySize=auto;html=1;exitX=0.5;exitY=1;exitDx=0;exitDy=0;entryX=0.5;entryY=0;entryDx=0;entryDy=0;endArrow=none;endFill=0;" edge="1" parent="FiTQ-bRqiKPeu-xEquxC-1" source="4OTkbudmXLv63_RJwgAq-2" target="4OTkbudmXLv63_RJwgAq-11">
          <mxGeometry relative="1" as="geometry" />
        </mxCell>
        <mxCell id="4OTkbudmXLv63_RJwgAq-2" value="评论id" style="ellipse;whiteSpace=wrap;html=1;" vertex="1" parent="FiTQ-bRqiKPeu-xEquxC-1">
          <mxGeometry x="160" y="250" width="70" height="30" as="geometry" />
        </mxCell>
        <mxCell id="4OTkbudmXLv63_RJwgAq-3" style="edgeStyle=none;shape=connector;rounded=0;orthogonalLoop=1;jettySize=auto;html=1;exitX=0;exitY=0.5;exitDx=0;exitDy=0;entryX=0.5;entryY=0;entryDx=0;entryDy=0;labelBackgroundColor=default;fontFamily=Helvetica;fontSize=11;fontColor=default;endArrow=none;endFill=0;strokeColor=default;" edge="1" parent="FiTQ-bRqiKPeu-xEquxC-1" source="4OTkbudmXLv63_RJwgAq-4" target="4OTkbudmXLv63_RJwgAq-11">
          <mxGeometry relative="1" as="geometry" />
        </mxCell>
        <mxCell id="4OTkbudmXLv63_RJwgAq-4" value="发表时间" style="ellipse;whiteSpace=wrap;html=1;" vertex="1" parent="FiTQ-bRqiKPeu-xEquxC-1">
          <mxGeometry x="390" y="250" width="70" height="30" as="geometry" />
        </mxCell>
        <mxCell id="4OTkbudmXLv63_RJwgAq-5" style="edgeStyle=none;shape=connector;rounded=0;orthogonalLoop=1;jettySize=auto;html=1;exitX=0;exitY=0.5;exitDx=0;exitDy=0;labelBackgroundColor=default;fontFamily=Helvetica;fontSize=11;fontColor=default;endArrow=none;endFill=0;strokeColor=default;entryX=0.5;entryY=0;entryDx=0;entryDy=0;" edge="1" parent="FiTQ-bRqiKPeu-xEquxC-1" source="4OTkbudmXLv63_RJwgAq-6" target="4OTkbudmXLv63_RJwgAq-11">
          <mxGeometry relative="1" as="geometry">
            <mxPoint x="330" y="280" as="targetPoint" />
          </mxGeometry>
        </mxCell>
        <mxCell id="4OTkbudmXLv63_RJwgAq-6" value="审核状态" style="ellipse;whiteSpace=wrap;html=1;" vertex="1" parent="FiTQ-bRqiKPeu-xEquxC-1">
          <mxGeometry x="420" y="290" width="70" height="30" as="geometry" />
        </mxCell>
        <mxCell id="4OTkbudmXLv63_RJwgAq-7" style="edgeStyle=none;shape=connector;rounded=0;orthogonalLoop=1;jettySize=auto;html=1;exitX=0.5;exitY=1;exitDx=0;exitDy=0;entryX=0.5;entryY=0;entryDx=0;entryDy=0;labelBackgroundColor=default;fontFamily=Helvetica;fontSize=11;fontColor=default;endArrow=none;endFill=0;strokeColor=default;" edge="1" parent="FiTQ-bRqiKPeu-xEquxC-1" source="4OTkbudmXLv63_RJwgAq-8" target="4OTkbudmXLv63_RJwgAq-11">
          <mxGeometry relative="1" as="geometry" />
        </mxCell>
        <mxCell id="4OTkbudmXLv63_RJwgAq-8" value="发表用户id" style="ellipse;whiteSpace=wrap;html=1;" vertex="1" parent="FiTQ-bRqiKPeu-xEquxC-1">
          <mxGeometry x="220" y="220" width="70" height="30" as="geometry" />
        </mxCell>
        <mxCell id="4OTkbudmXLv63_RJwgAq-9" style="edgeStyle=none;shape=connector;rounded=0;orthogonalLoop=1;jettySize=auto;html=1;exitX=0.5;exitY=1;exitDx=0;exitDy=0;labelBackgroundColor=default;fontFamily=Helvetica;fontSize=11;fontColor=default;endArrow=none;endFill=0;strokeColor=default;entryX=0.5;entryY=0;entryDx=0;entryDy=0;" edge="1" parent="FiTQ-bRqiKPeu-xEquxC-1" source="4OTkbudmXLv63_RJwgAq-10" target="4OTkbudmXLv63_RJwgAq-11">
          <mxGeometry relative="1" as="geometry">
            <mxPoint x="330" y="280" as="targetPoint" />
            <Array as="points" />
          </mxGeometry>
        </mxCell>
        <mxCell id="4OTkbudmXLv63_RJwgAq-10" value="回复用户id" style="ellipse;whiteSpace=wrap;html=1;" vertex="1" parent="FiTQ-bRqiKPeu-xEquxC-1">
          <mxGeometry x="310" y="220" width="70" height="30" as="geometry" />
        </mxCell>
        <mxCell id="4OTkbudmXLv63_RJwgAq-11" value="回复" style="rounded=0;whiteSpace=wrap;html=1;" vertex="1" parent="FiTQ-bRqiKPeu-xEquxC-1">
          <mxGeometry x="260" y="320" width="100" height="30" as="geometry" />
        </mxCell>
        <mxCell id="4OTkbudmXLv63_RJwgAq-12" value="" style="edgeStyle=none;shape=connector;rounded=0;orthogonalLoop=1;jettySize=auto;html=1;exitX=1;exitY=0.5;exitDx=0;exitDy=0;labelBackgroundColor=default;fontFamily=Helvetica;fontSize=11;fontColor=default;endArrow=none;endFill=0;strokeColor=default;entryX=0.5;entryY=0;entryDx=0;entryDy=0;" edge="1" parent="FiTQ-bRqiKPeu-xEquxC-1" source="4OTkbudmXLv63_RJwgAq-0" target="4OTkbudmXLv63_RJwgAq-11">
          <mxGeometry relative="1" as="geometry">
            <mxPoint x="330" y="310" as="targetPoint" />
            <mxPoint x="170" y="255" as="sourcePoint" />
          </mxGeometry>
        </mxCell>
      </root>
    </mxGraphModel>
  </diagram>
  <diagram id="x3kTcd1LN2tNLFN4vfk8" name="分类">
    <mxGraphModel dx="545" dy="417" grid="1" gridSize="10" guides="1" tooltips="1" connect="1" arrows="1" fold="1" page="1" pageScale="1" pageWidth="850" pageHeight="1100" math="0" shadow="0">
      <root>
        <mxCell id="ls-eTg-c8d7p7p6_kGll-0" />
        <mxCell id="ls-eTg-c8d7p7p6_kGll-1" parent="ls-eTg-c8d7p7p6_kGll-0" />
        <mxCell id="nQj0ndkurKpkT0B8zmmz-0" value="分类id" style="ellipse;whiteSpace=wrap;html=1;" vertex="1" parent="ls-eTg-c8d7p7p6_kGll-1">
          <mxGeometry x="230" y="270" width="70" height="30" as="geometry" />
        </mxCell>
        <mxCell id="nQj0ndkurKpkT0B8zmmz-1" style="rounded=0;orthogonalLoop=1;jettySize=auto;html=1;exitX=0.5;exitY=1;exitDx=0;exitDy=0;entryX=0.5;entryY=0;entryDx=0;entryDy=0;endArrow=none;endFill=0;" edge="1" parent="ls-eTg-c8d7p7p6_kGll-1" source="nQj0ndkurKpkT0B8zmmz-2" target="nQj0ndkurKpkT0B8zmmz-11">
          <mxGeometry relative="1" as="geometry" />
        </mxCell>
        <mxCell id="nQj0ndkurKpkT0B8zmmz-2" value="分类名" style="ellipse;whiteSpace=wrap;html=1;" vertex="1" parent="ls-eTg-c8d7p7p6_kGll-1">
          <mxGeometry x="320" y="270" width="70" height="30" as="geometry" />
        </mxCell>
        <mxCell id="nQj0ndkurKpkT0B8zmmz-11" value="分类" style="rounded=0;whiteSpace=wrap;html=1;" vertex="1" parent="ls-eTg-c8d7p7p6_kGll-1">
          <mxGeometry x="260" y="320" width="100" height="30" as="geometry" />
        </mxCell>
        <mxCell id="nQj0ndkurKpkT0B8zmmz-12" value="" style="edgeStyle=none;shape=connector;rounded=0;orthogonalLoop=1;jettySize=auto;html=1;exitX=0.5;exitY=1;exitDx=0;exitDy=0;labelBackgroundColor=default;fontFamily=Helvetica;fontSize=11;fontColor=default;endArrow=none;endFill=0;strokeColor=default;entryX=0.5;entryY=0;entryDx=0;entryDy=0;" edge="1" parent="ls-eTg-c8d7p7p6_kGll-1" source="nQj0ndkurKpkT0B8zmmz-0" target="nQj0ndkurKpkT0B8zmmz-11">
          <mxGeometry relative="1" as="geometry">
            <mxPoint x="330" y="310" as="targetPoint" />
            <mxPoint x="170" y="255" as="sourcePoint" />
          </mxGeometry>
        </mxCell>
      </root>
    </mxGraphModel>
  </diagram>
  <diagram id="t5999oMp_WU2x4Enfxv5" name="公告">
    <mxGraphModel dx="545" dy="417" grid="1" gridSize="10" guides="1" tooltips="1" connect="1" arrows="1" fold="1" page="1" pageScale="1" pageWidth="850" pageHeight="1100" math="0" shadow="0">
      <root>
        <mxCell id="x0zMNbFVjlQ_H6Bn9MZv-0" />
        <mxCell id="x0zMNbFVjlQ_H6Bn9MZv-1" parent="x0zMNbFVjlQ_H6Bn9MZv-0" />
        <mxCell id="UONeMBMOLy7lTxje0shp-0" value="公告id" style="ellipse;whiteSpace=wrap;html=1;" vertex="1" parent="x0zMNbFVjlQ_H6Bn9MZv-1">
          <mxGeometry x="170" y="270" width="70" height="30" as="geometry" />
        </mxCell>
        <mxCell id="UONeMBMOLy7lTxje0shp-1" style="rounded=0;orthogonalLoop=1;jettySize=auto;html=1;exitX=0.5;exitY=1;exitDx=0;exitDy=0;entryX=0.5;entryY=0;entryDx=0;entryDy=0;endArrow=none;endFill=0;" edge="1" parent="x0zMNbFVjlQ_H6Bn9MZv-1" source="UONeMBMOLy7lTxje0shp-2" target="UONeMBMOLy7lTxje0shp-11">
          <mxGeometry relative="1" as="geometry" />
        </mxCell>
        <mxCell id="UONeMBMOLy7lTxje0shp-2" value="内容" style="ellipse;whiteSpace=wrap;html=1;" vertex="1" parent="x0zMNbFVjlQ_H6Bn9MZv-1">
          <mxGeometry x="240" y="240" width="70" height="30" as="geometry" />
        </mxCell>
        <mxCell id="UONeMBMOLy7lTxje0shp-5" style="edgeStyle=none;shape=connector;rounded=0;orthogonalLoop=1;jettySize=auto;html=1;exitX=0;exitY=0.5;exitDx=0;exitDy=0;labelBackgroundColor=default;fontFamily=Helvetica;fontSize=11;fontColor=default;endArrow=none;endFill=0;strokeColor=default;entryX=0.5;entryY=0;entryDx=0;entryDy=0;" edge="1" parent="x0zMNbFVjlQ_H6Bn9MZv-1" source="UONeMBMOLy7lTxje0shp-6" target="UONeMBMOLy7lTxje0shp-11">
          <mxGeometry relative="1" as="geometry">
            <mxPoint x="330" y="280" as="targetPoint" />
          </mxGeometry>
        </mxCell>
        <mxCell id="UONeMBMOLy7lTxje0shp-6" value="已读用户id" style="ellipse;whiteSpace=wrap;html=1;" vertex="1" parent="x0zMNbFVjlQ_H6Bn9MZv-1">
          <mxGeometry x="400" y="270" width="70" height="30" as="geometry" />
        </mxCell>
        <mxCell id="UONeMBMOLy7lTxje0shp-7" style="edgeStyle=none;shape=connector;rounded=0;orthogonalLoop=1;jettySize=auto;html=1;exitX=0.5;exitY=1;exitDx=0;exitDy=0;entryX=0.5;entryY=0;entryDx=0;entryDy=0;labelBackgroundColor=default;fontFamily=Helvetica;fontSize=11;fontColor=default;endArrow=none;endFill=0;strokeColor=default;" edge="1" parent="x0zMNbFVjlQ_H6Bn9MZv-1" source="UONeMBMOLy7lTxje0shp-8" target="UONeMBMOLy7lTxje0shp-11">
          <mxGeometry relative="1" as="geometry" />
        </mxCell>
        <mxCell id="UONeMBMOLy7lTxje0shp-8" value="发表时间" style="ellipse;whiteSpace=wrap;html=1;" vertex="1" parent="x0zMNbFVjlQ_H6Bn9MZv-1">
          <mxGeometry x="330" y="240" width="70" height="30" as="geometry" />
        </mxCell>
        <mxCell id="UONeMBMOLy7lTxje0shp-11" value="公告" style="rounded=0;whiteSpace=wrap;html=1;" vertex="1" parent="x0zMNbFVjlQ_H6Bn9MZv-1">
          <mxGeometry x="270" y="320" width="100" height="30" as="geometry" />
        </mxCell>
        <mxCell id="UONeMBMOLy7lTxje0shp-12" value="" style="edgeStyle=none;shape=connector;rounded=0;orthogonalLoop=1;jettySize=auto;html=1;exitX=1;exitY=0.5;exitDx=0;exitDy=0;labelBackgroundColor=default;fontFamily=Helvetica;fontSize=11;fontColor=default;endArrow=none;endFill=0;strokeColor=default;entryX=0.5;entryY=0;entryDx=0;entryDy=0;" edge="1" parent="x0zMNbFVjlQ_H6Bn9MZv-1" source="UONeMBMOLy7lTxje0shp-0" target="UONeMBMOLy7lTxje0shp-11">
          <mxGeometry relative="1" as="geometry">
            <mxPoint x="330" y="310" as="targetPoint" />
            <mxPoint x="170" y="255" as="sourcePoint" />
          </mxGeometry>
        </mxCell>
      </root>
    </mxGraphModel>
  </diagram>
</mxfile>
